<svg
  version="1.1"
  xmlns="http://www.w3.org/2000/svg"
  xmlns:xlink="http://www.w3.org/1999/xlink"
  x="0px"
  y="0px"
  viewBox="0 0 126 38"
  style="enable-background: new 0 0 126 38"
  xml:space="preserve"
>
  <style type="text/css">
    .st0 {
      fill: #008c91;
    }
    .st1 {
      fill: none;
      stroke: #ffffff;
      stroke-width: 0.75;
      stroke-miterlimit: 10;
    }
    .st2 {
      fill: #ffffff;
    }
  </style>
  <g>
    <path
      class="st0"
      d="M123,38H3c-1.7,0-3-1.3-3-3V3c0-1.7,1.3-3,3-3h120c1.7,0,3,1.3,3,3v32C126,36.7,124.7,38,123,38z"
    />
    <path
      id="XMLID_1817_"
      class="st1"
      d="M33.2,25.7H10.5c-0.5,0-0.8-0.4-0.8-0.8V9.8c0-0.5,0.4-0.8,0.8-0.8h22.7
C33.7,9,34,9.4,34,9.8v15.1C34.1,25.4,33.7,25.7,33.2,25.7z"
    />
    <g id="XMLID_1815_">
      <path
        class="st2"
        d="M32.3,10.7v12H11.4v-12H32.3 M33.1,10H10.7v13.5h22.4V10L33.1,10z"
      />
    </g>
    <rect id="XMLID_1814_" x="20.7" y="25.7" class="st1" width="2.3" height="2.3" />
    <path
      id="XMLID_1813_"
      class="st1"
      d="M15.7,28h12.4c0.3,0,0.5,0.2,0.5,0.5v0.6H15.2v-0.6C15.2,28.2,15.5,28,15.7,28z"
    />
    <g>
      <path
        class="st2"
        d="M42.6,9.7h1.3c1.5,0,2.8,0.5,2.8,2.4s-1.3,2.4-2.8,2.4h-1.3V9.7z M43.6,13.8h0.5c0.8,0,1.6-0.6,1.6-1.7
s-0.8-1.7-1.6-1.7h-0.5V13.8z"
      />
      <path
        class="st2"
        d="M49.4,10.9c1.1,0,1.9,0.7,1.9,1.9c0,1-0.7,1.9-1.9,1.9c-1.2,0-1.9-0.8-1.9-1.9C47.5,11.6,48.3,10.9,49.4,10.9
z M49.4,13.9c0.7,0,0.9-0.6,0.9-1.2s-0.3-1.1-0.9-1.1s-0.9,0.5-0.9,1.1C48.5,13.3,48.7,13.9,49.4,13.9z"
      />
      <path
        class="st2"
        d="M51.7,11h1l0.8,2.7l0,0l0.7-2.7h1.1l0.8,2.7l0,0l0.7-2.7h0.9l-1.1,3.6h-1.1l-0.8-2.8l0,0l-0.8,2.8h-1L51.7,11
z"
      />
      <path
        class="st2"
        d="M58.4,11h0.9v0.5l0,0c0.3-0.4,0.7-0.6,1.2-0.6c0.9,0,1.2,0.6,1.2,1.4v2.3h-0.9v-1.9c0-0.4,0-1-0.6-1
c-0.7,0-0.8,0.7-0.8,1.2v1.8h-0.9V11H58.4z"
      />
      <path class="st2" d="M62.8,9.3h0.9v5.3h-0.9V9.3z" />
      <path
        class="st2"
        d="M66.5,10.9c1.1,0,1.9,0.7,1.9,1.9c0,1-0.7,1.9-1.9,1.9c-1.2,0-1.9-0.8-1.9-1.9C64.6,11.6,65.4,10.9,66.5,10.9
z M66.5,13.9c0.7,0,0.9-0.6,0.9-1.2s-0.3-1.1-0.9-1.1s-0.9,0.5-0.9,1.1C65.6,13.3,65.8,13.9,66.5,13.9z"
      />
      <path
        class="st2"
        d="M69.4,11.2c0.4-0.2,0.9-0.3,1.3-0.3c1.1,0,1.6,0.5,1.6,1.5v0.5c0,0.4,0,0.6,0,0.9s0,0.5,0,0.8h-0.8
c0-0.2,0-0.4,0-0.5l0,0c-0.2,0.4-0.7,0.6-1.1,0.6c-0.6,0-1.3-0.4-1.3-1.1c0-0.5,0.3-0.9,0.6-1c0.4-0.2,0.8-0.2,1.2-0.2h0.5
c0-0.6-0.3-0.8-0.8-0.8c-0.4,0-0.8,0.2-1.1,0.4L69.4,11.2z M70.5,14c0.3,0,0.5-0.1,0.7-0.3c0.2-0.2,0.2-0.5,0.2-0.7H71
c-0.4,0-1,0.1-1,0.6C69.9,13.9,70.2,14,70.5,14z"
      />
      <path
        class="st2"
        d="M75.7,14.2L75.7,14.2c-0.3,0.4-0.7,0.5-1.1,0.5c-1.1,0-1.5-0.9-1.5-1.9s0.4-1.9,1.5-1.9
c0.5,0,0.8,0.2,1.1,0.5l0,0V9.3h0.9v5.3h-0.9V14.2z M74.8,13.9c0.6,0,0.8-0.7,0.8-1.2s-0.2-1.1-0.8-1.1c-0.6,0-0.8,0.7-0.8,1.1
C74,13.3,74.2,13.9,74.8,13.9z"
      />
      <path
        class="st2"
        d="M79.9,11.7h-0.7V11h0.7v-0.5c0-0.7,0.4-1.2,1.1-1.2c0.2,0,0.5,0,0.7,0.1l-0.1,0.8c-0.1,0-0.2-0.1-0.4-0.1
c-0.3,0-0.4,0.3-0.4,0.6v0.4h0.8v0.7h-0.8v2.9h-0.9V11.7z"
      />
      <path
        class="st2"
        d="M84,10.9c1.1,0,1.9,0.7,1.9,1.9c0,1-0.7,1.9-1.9,1.9c-1.2,0-1.9-0.8-1.9-1.9C82.1,11.6,82.9,10.9,84,10.9z
M84,13.9c0.7,0,0.9-0.6,0.9-1.2s-0.3-1.1-0.9-1.1s-0.9,0.5-0.9,1.1C83.1,13.3,83.3,13.9,84,13.9z"
      />
      <path
        class="st2"
        d="M86.7,11h0.8v0.8l0,0c0-0.3,0.4-0.9,1-0.9c0.1,0,0.2,0,0.3,0v0.9c-0.1,0-0.3-0.1-0.4-0.1
c-0.8,0-0.8,1-0.8,1.5v1.3h-0.9V11z"
      />
    </g>
    <g>
      <path
        class="st2"
        d="M42.1,20h1.4l2.2,7.8l0,0l1.9-7.8h1.8l2,7.8l0,0l2.2-7.8H55l-2.8,9.1h-1.7l-2-7.9l0,0l-2,7.9h-1.7L42.1,20z"
      />
      <path
        class="st2"
        d="M57.4,21H56v-1.4h1.4V21z M56.1,22.5h1.2v6.6h-1.2V22.5z"
      />
      <path
        class="st2"
        d="M59.1,22.5h1.2v1.1l0,0c0.4-0.8,1.2-1.2,2.2-1.2c1.7,0,2.5,1.1,2.5,2.8v3.9h-1.2v-3.4c0-1.5-0.3-2.3-1.4-2.4
c-1.4,0-2,1.1-2,2.7v3.1h-1.2v-6.6H59.1z"
      />
      <path
        class="st2"
        d="M71.4,28.2L71.4,28.2c-0.4,0.5-1.1,1.1-2.3,1.1c-2,0-2.8-1.8-2.8-3.6c0-1.8,0.9-3.4,2.9-3.4
c1.2,0,1.8,0.5,2.2,1.1l0,0v-4h1.2v9.8h-1.2L71.4,28.2L71.4,28.2z M69.4,28.3c1.4,0,2-1.4,2-2.5c0-1.2-0.6-2.5-2-2.5
c-1.3,0-1.8,1.2-1.8,2.5C67.6,26.8,68.1,28.3,69.4,28.3z"
      />
      <path
        class="st2"
        d="M77.3,22.3c2,0,3.4,1.5,3.4,3.5c0,1.9-1.4,3.5-3.4,3.5s-3.4-1.6-3.4-3.5C74,23.8,75.3,22.3,77.3,22.3z
M77.3,28.3c1.4,0,2.1-1.3,2.1-2.5c0-1.3-0.8-2.5-2.1-2.5c-1.3,0-2.1,1.2-2.1,2.5C75.3,27,75.9,28.3,77.3,28.3z"
      />
      <path
        class="st2"
        d="M89.4,29.1H88l-1.7-5.6l0,0l-1.7,5.6h-1.4l-2.1-6.6h1.3l1.5,5.5l0,0l1.7-5.5H87l1.7,5.5l0,0l1.6-5.5h1.2
L89.4,29.1z"
      />
      <path
        class="st2"
        d="M92.1,27.8c0.5,0.3,1.2,0.5,1.5,0.5c0.6,0,1.2-0.2,1.2-0.9c0-1.2-2.9-1.1-2.9-3c0-1.4,1-2,2.3-2
c0.6,0,1,0.1,1.5,0.3l-0.1,1.1c-0.3-0.2-1-0.3-1.3-0.3c-0.6,0-1.2,0.3-1.2,0.8c0,1.4,2.9,1,2.9,3.1c0,1.4-1.1,2.1-2.3,2.1
c-0.6,0-1.3-0.1-1.8-0.4L92.1,27.8z"
      />
    </g>
  </g>
</svg>
